<svg xmlns="http://www.w3.org/2000/svg" viewBox="0 0 200 260" width="200" height="260">
  <defs><clipPath id="mw"><path d="M100,248 C72,198 28,150 28,88 A72,72,0,1,1,172,88 C172,150 128,198 100,248Z"></path></clipPath></defs>
  <path d="M100,248 C72,198 28,150 28,88 A72,72,0,1,1,172,88 C172,150 128,198 100,248Z" fill="none" stroke="#ffffff" stroke-width="4" stroke-linejoin="round"></path>
  <g clip-path="url(#mw)">
    <line x1="100" y1="22" x2="30" y2="280" stroke="#fff" stroke-width="2.5"></line>
    <line x1="100" y1="22" x2="65" y2="280" stroke="#fff" stroke-width="2"></line>
    <line x1="100" y1="22" x2="100" y2="280" stroke="#fff" stroke-width="2.5"></line>
    <line x1="100" y1="22" x2="135" y2="280" stroke="#fff" stroke-width="2"></line>
    <line x1="100" y1="22" x2="170" y2="280" stroke="#fff" stroke-width="2.5"></line>
    <line x1="20" y1="76" x2="180" y2="76" stroke="#fff" stroke-width="2"></line>
    <line x1="20" y1="115" x2="180" y2="115" stroke="#fff" stroke-width="2"></line>
  </g>
</svg>